<mxfile host="app.diagrams.net" modified="2022-08-17T22:47:41.188Z" agent="5.0 (Windows NT 10.0; Win64; x64) AppleWebKit/537.36 (KHTML, like Gecko) Chrome/103.0.5060.134 Safari/537.36 Edg/103.0.1264.77" etag="rZhqrnKlJYAVBBF3fp-h" version="20.2.2" type="github">
  <diagram id="ohw8LYgj2lDpm7l70D3n" name="Página-1">
    <mxGraphModel dx="868" dy="482" grid="1" gridSize="10" guides="1" tooltips="1" connect="1" arrows="1" fold="1" page="1" pageScale="1" pageWidth="827" pageHeight="1169" math="0" shadow="0">
      <root>
        <mxCell id="0" />
        <mxCell id="1" parent="0" />
        <mxCell id="Agv2UrrI-BojURcZwNxu-28" value="Microservicio&lt;br&gt;Active" style="rounded=0;whiteSpace=wrap;html=1;" vertex="1" parent="1">
          <mxGeometry x="541" y="330" width="120" height="60" as="geometry" />
        </mxCell>
        <mxCell id="Agv2UrrI-BojURcZwNxu-27" value="Microservicio&lt;br&gt;Passive" style="rounded=0;whiteSpace=wrap;html=1;" vertex="1" parent="1">
          <mxGeometry x="541" y="210" width="120" height="60" as="geometry" />
        </mxCell>
        <mxCell id="Agv2UrrI-BojURcZwNxu-26" value="Microservicio&lt;br&gt;Person" style="rounded=0;whiteSpace=wrap;html=1;" vertex="1" parent="1">
          <mxGeometry x="541" y="90" width="120" height="60" as="geometry" />
        </mxCell>
        <mxCell id="Agv2UrrI-BojURcZwNxu-6" value="" style="ellipse;shape=cloud;whiteSpace=wrap;html=1;" vertex="1" parent="1">
          <mxGeometry x="261" y="810" width="180" height="120" as="geometry" />
        </mxCell>
        <mxCell id="Agv2UrrI-BojURcZwNxu-17" value="" style="endArrow=classic;html=1;rounded=0;exitX=1;exitY=0.25;exitDx=0;exitDy=0;" edge="1" parent="1" source="Agv2UrrI-BojURcZwNxu-9">
          <mxGeometry width="50" height="50" relative="1" as="geometry">
            <mxPoint x="505" y="750" as="sourcePoint" />
            <mxPoint x="571.1454225910693" y="780.710374774425" as="targetPoint" />
            <Array as="points">
              <mxPoint x="491" y="820" />
            </Array>
          </mxGeometry>
        </mxCell>
        <mxCell id="Agv2UrrI-BojURcZwNxu-20" value="Validación de Unit Test" style="edgeLabel;html=1;align=center;verticalAlign=middle;resizable=0;points=[];" vertex="1" connectable="0" parent="Agv2UrrI-BojURcZwNxu-17">
          <mxGeometry x="-0.1046" relative="1" as="geometry">
            <mxPoint y="1" as="offset" />
          </mxGeometry>
        </mxCell>
        <mxCell id="Agv2UrrI-BojURcZwNxu-1" value="MongoDB&lt;br&gt;Active" style="shape=cylinder3;whiteSpace=wrap;html=1;boundedLbl=1;backgroundOutline=1;size=15;" vertex="1" parent="1">
          <mxGeometry x="631" y="360" width="60" height="60" as="geometry" />
        </mxCell>
        <mxCell id="Agv2UrrI-BojURcZwNxu-2" value="MongoDB&lt;br&gt;Person" style="shape=cylinder3;whiteSpace=wrap;html=1;boundedLbl=1;backgroundOutline=1;size=15;" vertex="1" parent="1">
          <mxGeometry x="631" y="120" width="60" height="60" as="geometry" />
        </mxCell>
        <mxCell id="Agv2UrrI-BojURcZwNxu-3" value="MongoDB&lt;br&gt;Passive" style="shape=cylinder3;whiteSpace=wrap;html=1;boundedLbl=1;backgroundOutline=1;size=15;" vertex="1" parent="1">
          <mxGeometry x="631" y="250" width="60" height="60" as="geometry" />
        </mxCell>
        <mxCell id="Agv2UrrI-BojURcZwNxu-4" value="Actor" style="shape=umlActor;verticalLabelPosition=bottom;verticalAlign=top;html=1;outlineConnect=0;" vertex="1" parent="1">
          <mxGeometry x="141" y="750" width="30" height="60" as="geometry" />
        </mxCell>
        <mxCell id="Agv2UrrI-BojURcZwNxu-5" value="Actor" style="shape=umlActor;verticalLabelPosition=bottom;verticalAlign=top;html=1;outlineConnect=0;" vertex="1" parent="1">
          <mxGeometry x="141" y="870" width="30" height="60" as="geometry" />
        </mxCell>
        <mxCell id="Agv2UrrI-BojURcZwNxu-7" value="sonarqube" style="rounded=0;whiteSpace=wrap;html=1;" vertex="1" parent="1">
          <mxGeometry x="571" y="740" width="120" height="60" as="geometry" />
        </mxCell>
        <mxCell id="Agv2UrrI-BojURcZwNxu-8" value="Artifactory&lt;br&gt;(Jforg)" style="rounded=0;whiteSpace=wrap;html=1;" vertex="1" parent="1">
          <mxGeometry x="571" y="880" width="120" height="60" as="geometry" />
        </mxCell>
        <mxCell id="Agv2UrrI-BojURcZwNxu-23" style="edgeStyle=orthogonalEdgeStyle;rounded=0;orthogonalLoop=1;jettySize=auto;html=1;exitX=0.75;exitY=1;exitDx=0;exitDy=0;" edge="1" parent="1" source="Agv2UrrI-BojURcZwNxu-9" target="Agv2UrrI-BojURcZwNxu-10">
          <mxGeometry relative="1" as="geometry">
            <Array as="points">
              <mxPoint x="379" y="918" />
              <mxPoint x="471" y="918" />
            </Array>
          </mxGeometry>
        </mxCell>
        <mxCell id="Agv2UrrI-BojURcZwNxu-9" value="Github Actions" style="rounded=0;whiteSpace=wrap;html=1;" vertex="1" parent="1">
          <mxGeometry x="296" y="855" width="110" height="30" as="geometry" />
        </mxCell>
        <mxCell id="Agv2UrrI-BojURcZwNxu-10" value="workflow.yml" style="shape=note;whiteSpace=wrap;html=1;backgroundOutline=1;darkOpacity=0.05;" vertex="1" parent="1">
          <mxGeometry x="431" y="940" width="80" height="100" as="geometry" />
        </mxCell>
        <mxCell id="Agv2UrrI-BojURcZwNxu-11" value="Github" style="text;html=1;align=center;verticalAlign=middle;resizable=0;points=[];autosize=1;strokeColor=none;fillColor=none;" vertex="1" parent="1">
          <mxGeometry x="311" y="785" width="60" height="30" as="geometry" />
        </mxCell>
        <mxCell id="Agv2UrrI-BojURcZwNxu-12" value="" style="endArrow=classic;html=1;rounded=0;entryX=0.122;entryY=0.283;entryDx=0;entryDy=0;entryPerimeter=0;" edge="1" parent="1" source="Agv2UrrI-BojURcZwNxu-4" target="Agv2UrrI-BojURcZwNxu-6">
          <mxGeometry width="50" height="50" relative="1" as="geometry">
            <mxPoint x="211" y="805" as="sourcePoint" />
            <mxPoint x="261" y="755" as="targetPoint" />
          </mxGeometry>
        </mxCell>
        <mxCell id="Agv2UrrI-BojURcZwNxu-13" value="" style="endArrow=classic;html=1;rounded=0;entryX=0.122;entryY=0.55;entryDx=0;entryDy=0;entryPerimeter=0;" edge="1" parent="1" source="Agv2UrrI-BojURcZwNxu-5" target="Agv2UrrI-BojURcZwNxu-6">
          <mxGeometry width="50" height="50" relative="1" as="geometry">
            <mxPoint x="191" y="890" as="sourcePoint" />
            <mxPoint x="231" y="850" as="targetPoint" />
          </mxGeometry>
        </mxCell>
        <mxCell id="Agv2UrrI-BojURcZwNxu-14" value="git push" style="text;html=1;align=center;verticalAlign=middle;resizable=0;points=[];autosize=1;strokeColor=none;fillColor=none;" vertex="1" parent="1">
          <mxGeometry x="206" y="785" width="70" height="30" as="geometry" />
        </mxCell>
        <mxCell id="Agv2UrrI-BojURcZwNxu-15" value="git push" style="text;html=1;align=center;verticalAlign=middle;resizable=0;points=[];autosize=1;strokeColor=none;fillColor=none;" vertex="1" parent="1">
          <mxGeometry x="191" y="890" width="70" height="30" as="geometry" />
        </mxCell>
        <mxCell id="Agv2UrrI-BojURcZwNxu-18" value="" style="endArrow=classic;html=1;rounded=0;entryX=0;entryY=0.5;entryDx=0;entryDy=0;exitX=1;exitY=1;exitDx=0;exitDy=0;" edge="1" parent="1" source="Agv2UrrI-BojURcZwNxu-9" target="Agv2UrrI-BojURcZwNxu-8">
          <mxGeometry width="50" height="50" relative="1" as="geometry">
            <mxPoint x="425.90999999999997" y="915" as="sourcePoint" />
            <mxPoint x="551" y="910" as="targetPoint" />
          </mxGeometry>
        </mxCell>
        <mxCell id="Agv2UrrI-BojURcZwNxu-19" value="Depositar componente" style="edgeLabel;html=1;align=center;verticalAlign=middle;resizable=0;points=[];rotation=0;" vertex="1" connectable="0" parent="Agv2UrrI-BojURcZwNxu-18">
          <mxGeometry x="-0.1289" y="1" relative="1" as="geometry">
            <mxPoint x="27" y="-5" as="offset" />
          </mxGeometry>
        </mxCell>
        <mxCell id="Agv2UrrI-BojURcZwNxu-29" value="service-discovery" style="rounded=0;whiteSpace=wrap;html=1;" vertex="1" parent="1">
          <mxGeometry x="220" y="90" width="120" height="60" as="geometry" />
        </mxCell>
        <mxCell id="Agv2UrrI-BojURcZwNxu-30" value="api-gateway" style="rounded=0;whiteSpace=wrap;html=1;" vertex="1" parent="1">
          <mxGeometry x="220" y="330" width="120" height="60" as="geometry" />
        </mxCell>
        <mxCell id="Agv2UrrI-BojURcZwNxu-34" value="" style="endArrow=classic;html=1;rounded=0;entryX=1;entryY=0.5;entryDx=0;entryDy=0;exitX=0;exitY=0.5;exitDx=0;exitDy=0;" edge="1" parent="1" source="Agv2UrrI-BojURcZwNxu-26" target="Agv2UrrI-BojURcZwNxu-29">
          <mxGeometry width="50" height="50" relative="1" as="geometry">
            <mxPoint x="540.5" y="110" as="sourcePoint" />
            <mxPoint x="339.5" y="110" as="targetPoint" />
          </mxGeometry>
        </mxCell>
        <mxCell id="Agv2UrrI-BojURcZwNxu-35" value="" style="endArrow=classic;html=1;rounded=0;entryX=1;entryY=0.5;entryDx=0;entryDy=0;exitX=0;exitY=0.5;exitDx=0;exitDy=0;" edge="1" parent="1" source="Agv2UrrI-BojURcZwNxu-27" target="Agv2UrrI-BojURcZwNxu-29">
          <mxGeometry width="50" height="50" relative="1" as="geometry">
            <mxPoint x="430" y="240" as="sourcePoint" />
            <mxPoint x="480" y="190" as="targetPoint" />
          </mxGeometry>
        </mxCell>
        <mxCell id="Agv2UrrI-BojURcZwNxu-36" value="" style="endArrow=classic;html=1;rounded=0;entryX=1;entryY=0.5;entryDx=0;entryDy=0;exitX=0;exitY=0.5;exitDx=0;exitDy=0;" edge="1" parent="1" source="Agv2UrrI-BojURcZwNxu-28" target="Agv2UrrI-BojURcZwNxu-29">
          <mxGeometry width="50" height="50" relative="1" as="geometry">
            <mxPoint x="430" y="240" as="sourcePoint" />
            <mxPoint x="480" y="190" as="targetPoint" />
          </mxGeometry>
        </mxCell>
        <mxCell id="Agv2UrrI-BojURcZwNxu-37" value="" style="endArrow=classic;html=1;rounded=0;entryX=0;entryY=0.5;entryDx=0;entryDy=0;exitX=1;exitY=0.25;exitDx=0;exitDy=0;" edge="1" parent="1" source="Agv2UrrI-BojURcZwNxu-30" target="Agv2UrrI-BojURcZwNxu-26">
          <mxGeometry width="50" height="50" relative="1" as="geometry">
            <mxPoint x="410" y="350" as="sourcePoint" />
            <mxPoint x="460" y="300" as="targetPoint" />
          </mxGeometry>
        </mxCell>
        <mxCell id="Agv2UrrI-BojURcZwNxu-39" value="" style="endArrow=classic;html=1;rounded=0;entryX=0;entryY=0.5;entryDx=0;entryDy=0;exitX=1;exitY=0.5;exitDx=0;exitDy=0;" edge="1" parent="1" source="Agv2UrrI-BojURcZwNxu-30" target="Agv2UrrI-BojURcZwNxu-27">
          <mxGeometry width="50" height="50" relative="1" as="geometry">
            <mxPoint x="409" y="360" as="sourcePoint" />
            <mxPoint x="459" y="310" as="targetPoint" />
          </mxGeometry>
        </mxCell>
        <mxCell id="Agv2UrrI-BojURcZwNxu-40" value="" style="endArrow=classic;html=1;rounded=0;entryX=0;entryY=0.5;entryDx=0;entryDy=0;exitX=1;exitY=0.5;exitDx=0;exitDy=0;" edge="1" parent="1" source="Agv2UrrI-BojURcZwNxu-30" target="Agv2UrrI-BojURcZwNxu-28">
          <mxGeometry width="50" height="50" relative="1" as="geometry">
            <mxPoint x="409" y="380" as="sourcePoint" />
            <mxPoint x="459" y="330" as="targetPoint" />
          </mxGeometry>
        </mxCell>
        <mxCell id="Agv2UrrI-BojURcZwNxu-41" value="" style="endArrow=classic;startArrow=classic;html=1;rounded=0;exitX=0.5;exitY=0;exitDx=0;exitDy=0;" edge="1" parent="1" source="Agv2UrrI-BojURcZwNxu-30" target="Agv2UrrI-BojURcZwNxu-29">
          <mxGeometry width="50" height="50" relative="1" as="geometry">
            <mxPoint x="340" y="330" as="sourcePoint" />
            <mxPoint x="390" y="280" as="targetPoint" />
          </mxGeometry>
        </mxCell>
        <mxCell id="Agv2UrrI-BojURcZwNxu-42" value="config-server" style="rounded=0;whiteSpace=wrap;html=1;" vertex="1" parent="1">
          <mxGeometry x="380" y="430" width="120" height="60" as="geometry" />
        </mxCell>
        <mxCell id="Agv2UrrI-BojURcZwNxu-60" style="rounded=0;orthogonalLoop=1;jettySize=auto;html=1;exitX=0.5;exitY=0.5;exitDx=0;exitDy=0;exitPerimeter=0;entryX=0.05;entryY=0.66;entryDx=0;entryDy=0;entryPerimeter=0;" edge="1" parent="1" source="Agv2UrrI-BojURcZwNxu-43" target="Agv2UrrI-BojURcZwNxu-46">
          <mxGeometry relative="1" as="geometry" />
        </mxCell>
        <mxCell id="Agv2UrrI-BojURcZwNxu-61" style="edgeStyle=none;rounded=0;orthogonalLoop=1;jettySize=auto;html=1;exitX=0.5;exitY=0.5;exitDx=0;exitDy=0;exitPerimeter=0;entryX=0.073;entryY=0.426;entryDx=0;entryDy=0;entryPerimeter=0;" edge="1" parent="1" source="Agv2UrrI-BojURcZwNxu-43">
          <mxGeometry relative="1" as="geometry">
            <mxPoint x="101.51499999999999" y="386.1385" as="targetPoint" />
          </mxGeometry>
        </mxCell>
        <mxCell id="Agv2UrrI-BojURcZwNxu-43" value="Actor" style="shape=umlActor;verticalLabelPosition=bottom;verticalAlign=top;html=1;" vertex="1" parent="1">
          <mxGeometry x="30" y="320" width="30" height="60" as="geometry" />
        </mxCell>
        <mxCell id="Agv2UrrI-BojURcZwNxu-62" style="edgeStyle=none;rounded=0;orthogonalLoop=1;jettySize=auto;html=1;exitX=1;exitY=0.5;exitDx=0;exitDy=0;exitPerimeter=0;entryX=0;entryY=0.5;entryDx=0;entryDy=0;" edge="1" parent="1" source="Agv2UrrI-BojURcZwNxu-46" target="Agv2UrrI-BojURcZwNxu-30">
          <mxGeometry relative="1" as="geometry" />
        </mxCell>
        <mxCell id="Agv2UrrI-BojURcZwNxu-46" value="" style="sketch=0;aspect=fixed;pointerEvents=1;shadow=0;dashed=0;html=1;strokeColor=none;labelPosition=center;verticalLabelPosition=bottom;verticalAlign=top;align=center;fillColor=#00188D;shape=mxgraph.mscae.enterprise.android_phone" vertex="1" parent="1">
          <mxGeometry x="110" y="290" width="30" height="50" as="geometry" />
        </mxCell>
        <mxCell id="Agv2UrrI-BojURcZwNxu-49" value="" style="endArrow=none;dashed=1;html=1;rounded=0;entryX=0;entryY=0.25;entryDx=0;entryDy=0;exitX=0.383;exitY=1;exitDx=0;exitDy=0;exitPerimeter=0;edgeStyle=orthogonalEdgeStyle;" edge="1" parent="1" source="Agv2UrrI-BojURcZwNxu-29" target="Agv2UrrI-BojURcZwNxu-42">
          <mxGeometry width="50" height="50" relative="1" as="geometry">
            <mxPoint x="280" y="160" as="sourcePoint" />
            <mxPoint x="340" y="390" as="targetPoint" />
          </mxGeometry>
        </mxCell>
        <mxCell id="Agv2UrrI-BojURcZwNxu-53" value="" style="endArrow=none;dashed=1;html=1;rounded=0;entryX=0;entryY=0.5;entryDx=0;entryDy=0;exitX=0.25;exitY=1;exitDx=0;exitDy=0;edgeStyle=orthogonalEdgeStyle;" edge="1" parent="1" source="Agv2UrrI-BojURcZwNxu-29" target="Agv2UrrI-BojURcZwNxu-42">
          <mxGeometry width="50" height="50" relative="1" as="geometry">
            <mxPoint x="280" y="485" as="sourcePoint" />
            <mxPoint x="330" y="435" as="targetPoint" />
          </mxGeometry>
        </mxCell>
        <mxCell id="Agv2UrrI-BojURcZwNxu-55" value="" style="endArrow=none;dashed=1;html=1;rounded=0;entryX=1;entryY=0.25;entryDx=0;entryDy=0;edgeStyle=orthogonalEdgeStyle;exitX=1;exitY=0.75;exitDx=0;exitDy=0;" edge="1" parent="1" source="Agv2UrrI-BojURcZwNxu-42" target="Agv2UrrI-BojURcZwNxu-26">
          <mxGeometry width="50" height="50" relative="1" as="geometry">
            <mxPoint x="500" y="480" as="sourcePoint" />
            <mxPoint x="550" y="430" as="targetPoint" />
            <Array as="points">
              <mxPoint x="720" y="475" />
              <mxPoint x="720" y="105" />
            </Array>
          </mxGeometry>
        </mxCell>
        <mxCell id="Agv2UrrI-BojURcZwNxu-56" value="" style="endArrow=none;dashed=1;html=1;rounded=0;entryX=1;entryY=0.25;entryDx=0;entryDy=0;edgeStyle=orthogonalEdgeStyle;exitX=1;exitY=0.5;exitDx=0;exitDy=0;" edge="1" parent="1" source="Agv2UrrI-BojURcZwNxu-42" target="Agv2UrrI-BojURcZwNxu-27">
          <mxGeometry width="50" height="50" relative="1" as="geometry">
            <mxPoint x="500" y="460" as="sourcePoint" />
            <mxPoint x="550" y="410" as="targetPoint" />
            <Array as="points">
              <mxPoint x="710" y="460" />
              <mxPoint x="710" y="225" />
            </Array>
          </mxGeometry>
        </mxCell>
        <mxCell id="Agv2UrrI-BojURcZwNxu-58" value="" style="endArrow=none;dashed=1;html=1;rounded=0;entryX=0.5;entryY=1;entryDx=0;entryDy=0;exitX=1;exitY=0.25;exitDx=0;exitDy=0;edgeStyle=orthogonalEdgeStyle;" edge="1" parent="1" source="Agv2UrrI-BojURcZwNxu-42" target="Agv2UrrI-BojURcZwNxu-28">
          <mxGeometry width="50" height="50" relative="1" as="geometry">
            <mxPoint x="500" y="450" as="sourcePoint" />
            <mxPoint x="550" y="400" as="targetPoint" />
          </mxGeometry>
        </mxCell>
        <mxCell id="Agv2UrrI-BojURcZwNxu-64" value="" style="endArrow=classic;html=1;rounded=0;entryX=0;entryY=0.5;entryDx=0;entryDy=0;exitX=1.036;exitY=0.483;exitDx=0;exitDy=0;exitPerimeter=0;" edge="1" parent="1" target="Agv2UrrI-BojURcZwNxu-30">
          <mxGeometry width="50" height="50" relative="1" as="geometry">
            <mxPoint x="154.48000000000002" y="389.11675" as="sourcePoint" />
            <mxPoint x="202.5" y="350" as="targetPoint" />
          </mxGeometry>
        </mxCell>
        <mxCell id="Agv2UrrI-BojURcZwNxu-66" value="localhost:8085/person" style="text;html=1;align=center;verticalAlign=middle;resizable=0;points=[];autosize=1;strokeColor=none;fillColor=none;" vertex="1" parent="1">
          <mxGeometry x="540" y="65" width="140" height="30" as="geometry" />
        </mxCell>
        <mxCell id="Agv2UrrI-BojURcZwNxu-67" value="localhost:8086/passive" style="text;html=1;align=center;verticalAlign=middle;resizable=0;points=[];autosize=1;strokeColor=none;fillColor=none;" vertex="1" parent="1">
          <mxGeometry x="491" y="270" width="140" height="30" as="geometry" />
        </mxCell>
        <mxCell id="Agv2UrrI-BojURcZwNxu-68" value="localhost:8087/active" style="text;html=1;align=center;verticalAlign=middle;resizable=0;points=[];autosize=1;strokeColor=none;fillColor=none;" vertex="1" parent="1">
          <mxGeometry x="480" y="386.13" width="140" height="30" as="geometry" />
        </mxCell>
        <mxCell id="Agv2UrrI-BojURcZwNxu-69" value="" style="ellipse;shape=cloud;whiteSpace=wrap;html=1;" vertex="1" parent="1">
          <mxGeometry x="400" y="530" width="120" height="80" as="geometry" />
        </mxCell>
        <mxCell id="Agv2UrrI-BojURcZwNxu-70" value="" style="endArrow=classic;html=1;rounded=0;entryX=0.4;entryY=0.1;entryDx=0;entryDy=0;entryPerimeter=0;exitX=0.5;exitY=1;exitDx=0;exitDy=0;" edge="1" parent="1" source="Agv2UrrI-BojURcZwNxu-42" target="Agv2UrrI-BojURcZwNxu-69">
          <mxGeometry width="50" height="50" relative="1" as="geometry">
            <mxPoint x="380" y="550" as="sourcePoint" />
            <mxPoint x="430" y="500" as="targetPoint" />
          </mxGeometry>
        </mxCell>
        <mxCell id="Agv2UrrI-BojURcZwNxu-71" value="Github" style="text;html=1;align=center;verticalAlign=middle;resizable=0;points=[];autosize=1;strokeColor=none;fillColor=none;" vertex="1" parent="1">
          <mxGeometry x="431" y="605" width="60" height="30" as="geometry" />
        </mxCell>
        <mxCell id="Agv2UrrI-BojURcZwNxu-72" value="person-service.yaml&lt;br&gt;passive-service.yaml&lt;br&gt;active-service.yaml&lt;br&gt;gateway.yaml&lt;br&gt;discovery.yaml" style="text;html=1;align=center;verticalAlign=middle;resizable=0;points=[];autosize=1;strokeColor=none;fillColor=none;" vertex="1" parent="1">
          <mxGeometry x="520" y="525" width="130" height="90" as="geometry" />
        </mxCell>
        <mxCell id="Agv2UrrI-BojURcZwNxu-73" value="Eureka Server" style="text;html=1;align=center;verticalAlign=middle;resizable=0;points=[];autosize=1;strokeColor=none;fillColor=none;" vertex="1" parent="1">
          <mxGeometry x="230" y="60" width="100" height="30" as="geometry" />
        </mxCell>
        <mxCell id="Agv2UrrI-BojURcZwNxu-74" value="" style="shape=image;html=1;verticalAlign=top;verticalLabelPosition=bottom;labelBackgroundColor=#ffffff;imageAspect=0;aspect=fixed;image=https://cdn1.iconfinder.com/data/icons/ionicons-fill-vol-1/512/browsers-128.png" vertex="1" parent="1">
          <mxGeometry x="101" y="366" width="48" height="48" as="geometry" />
        </mxCell>
      </root>
    </mxGraphModel>
  </diagram>
</mxfile>
